# xmcd
#
# Track frame offsets:
#	150
#	15043
#	32010
#	51363
#	65853
#	83078
#	94370
#	115143
#	137025
#	158098
#	175435
#	192068
#	210845
#
# Disc length: 3063 seconds
# Revision: 0
# Processed by: cddbd v1.5.2PL0 Copyright (c) Steve Scherf et al.
# Submitted via: dBpowerAMP V12.0
#
DISCID=a60bf50d
DTITLE=Tom Hanway - Bucket Of Bees
DYEAR=1991
DGENRE=Bluegrass
TTITLE0=Bucket Of Bees
TTITLE1=Elephant Hop
TTITLE2=Avalon
TTITLE3=You Can't Stop Me From Dreaming
TTITLE4=Morgaine's Hornpipe
TTITLE5=Kirsten's Song
TTITLE6=Crossroad Blues
TTITLE7=Chrome Attack
TTITLE8=Nashville Blues
TTITLE9=Indian Summer
TTITLE10=Gypsy Moon
TTITLE11=Alabama Jubilee/Bye Bye Blues
TTITLE12=Moscow Nights
EXTD=
EXTT0=
EXTT1=
EXTT2=
EXTT3=
EXTT4=
EXTT5=
EXTT6=
EXTT7=
EXTT8=
EXTT9=
EXTT10=
EXTT11=
EXTT12=
PLAYORDER=
